HIERARCHY
ROOT ui
{
	 OFFSET 0 0 0
	 CHANNELS 3 XPosition YPosition Z Position
	 EndSite
	 {
	 OFFSET 0 -1 0
	 }
}
ROOT li
{
	 OFFSET 0 0 0
	 CHANNELS 3 XPosition YPosition Z Position
	 EndSite
	 {
	 OFFSET 0 -1 0
	 }
}
ROOT ul
{
	 OFFSET 0 0 0
	 CHANNELS 3 XPosition YPosition Z Position
	 EndSite
	 {
	 OFFSET 0 -1 0
	 }
}
ROOT ll
{
	 OFFSET 0 0 0
	 CHANNELS 3 XPosition YPosition Z Position
	 EndSite
	 {
	 OFFSET 0 -1 0
	 }
}
ROOT tt
{
	 OFFSET 0 0 0
	 CHANNELS 3 XPosition YPosition Z Position
	 EndSite
	 {
	 OFFSET 0 -1 0
	 }
}
ROOT tb
{
	 OFFSET 0 0 0
	 CHANNELS 3 XPosition YPosition Z Position
	 EndSite
	 {
	 OFFSET 0 -1 0
	 }
}
ROOT td
{
	 OFFSET 0 0 0
	 CHANNELS 3 XPosition YPosition Z Position
	 EndSite
	 {
	 OFFSET 0 -1 0
	 }
}
ROOT v
{
	 OFFSET 0 0 0
	 CHANNELS 3 XPosition YPosition Z Position
	 EndSite
	 {
	 OFFSET 0 -1 0
	 }
}
ROOT bn
{
	 OFFSET 0 0 0
	 CHANNELS 3 XPosition YPosition Z Position
	 EndSite
	 {
	 OFFSET 0 -1 0
	 }
}
MOTION
Frames: 24
Frame Time: 0.002
-0.008250946998596192	4.221929907798767E-4	0		0.44740966796875	-2.362414794921875	0		-1.0434434814453124	0.0016425750255584716	0		-0.7034993896484375	-2.638880615234375	0		1.925601806640625	-0.3192864990234375	0		3.296453369140625	0.049690322875976564	0		4.50064013671875	0.14402584838867188	0		5.948947265625	0.53441943359375	0		-0.08773326873779297	5.92929736328125	0		
-0.01145185661315918	-0.002617445945739746	0		0.420363525390625	-2.359954833984375	0		-1.108836181640625	-0.010146039962768555	0		-0.73747705078125	-2.633301025390625	0		1.9111229248046875	-0.33605917358398435	0		3.293944091796875	0.03169959831237793	0		4.5004970703125	0.14401454162597657	0		5.95295947265625	0.5423535766601563	0		-0.22041506958007812	5.90990185546875	0		
-0.011594720840454101	-0.0027161810398101806	0		0.4223165588378906	-2.357088623046875	0		-1.1089788818359374	-0.010261027336120606	0		-0.7186054077148437	-2.634799072265625	0		1.9007210693359375	-0.3489220581054687	0		3.3023720703125	0.059480239868164066	0		4.52234765625	0.14353240966796876	0		5.95280810546875	0.5423431396484375	0		-0.20542353820800782	5.92049072265625	0		
-0.00153266704082489	0.006982688903808594	0		0.4262811584472656	-2.353261474609375	0		-1.1091192626953126	-0.010366726875305175	0		-0.724410888671875	-2.61978125	0		1.899277587890625	-0.3639734802246094	0		3.293659912109375	0.031589044570922854	0		4.52632763671875	0.14940110778808594	0		5.96068115234375	0.5431456909179687	0		-0.20562437438964845	5.92039404296875	0		
0.01616908836364746	-0.0014726860523223877	0		0.4392044372558594	-2.35161376953125	0		-1.0434273681640625	-0.019811061859130858	0		-0.7353580932617187	-2.61165185546875	0		1.8768675537109376	-0.37759683227539065	0		3.312811279296875	0.04513096237182617	0		4.52207373046875	0.14342584228515626	0		5.95220068359375	0.5262642211914063	0		-0.08859491729736328	5.9289091796875	0		
-0.00891928768157959	-4.451199993491173E-5	0		0.41992169189453127	-2.36030419921875	0		-1.12158642578125	-0.021303720474243164	0		-0.7344188842773437	-2.609759033203125	0		1.8992802734375	-0.40113589477539063	0		3.313430908203125	0.032046428680419924	0		4.53607861328125	0.14907740783691406	0		5.951431640625	0.5432269897460937	0		-0.08971684265136719	5.92984619140625	0		
0.015964130401611328	-0.0016311650276184082	0		0.43695947265625	-2.35472705078125	0		-1.0517735595703126	-0.02681399345397949	0		-0.768389892578125	-2.60414404296875	0		1.868279296875	-0.3965712890625	0		3.308484130859375	0.03908478927612305	0		4.54010888671875	0.15493702697753906	0		5.9519912109375	0.5261585083007813	0		-0.08885258483886718	5.92875	0		
-0.0090726957321167	-1.8874500691890716E-4	0		0.395894775390625	-2.35495556640625	0		-1.11402734375	-0.035617603302001956	0		-0.751486083984375	-2.6065625	0		1.894844970703125	-0.41517987060546874	0		3.323968505859375	0.016707740783691406	0		4.53800537109375	0.15292866516113282	0		5.96027197265625	0.5429476318359375	0		-0.2032221221923828	5.916013671875	0		
0.026074087142944336	0.00803440284729004	0		0.42591058349609373	-2.353626953125	0		-1.1140570068359374	-0.03568270111083984	0		-0.7443417358398438	-2.5987705078125	0		1.9028563232421876	-0.4133948059082031	0		3.341486572265625	0.04331038665771485	0		4.56309228515625	0.15837791442871094	0		5.96023974609375	0.54291552734375	0		-0.20425881958007813	5.91697314453125	0		
-0.009096766471862793	-2.998749911785126E-4	0		0.4130145568847656	-2.349410888671875	0		-1.1221923828125	-0.04257554626464844	0		-0.7233046875	-2.598255126953125	0		1.9075162353515625	-0.4305332946777344	0		3.314987060546875	0.018815168380737303	0		4.5551396484375	0.1605166473388672	0		5.94708154296875	0.5351666870117188	0		-0.08804666900634765	5.927548828125	0		
0.01591976070404053	-0.0018527309894561768	0		0.43696832275390624	-2.35493896484375	0		-1.051246337890625	-0.04807574462890625	0		-0.759173095703125	-2.5945693359375	0		1.9301077880859374	-0.45302566528320315	0		3.339166748046875	0.025307510375976564	0		4.56517822265625	0.16030613708496094	0		5.950302734375	0.5441082763671875	0		-0.08805168914794922	5.927505859375	0		
-0.008976547241210938	-3.773530125617981E-4	0		0.41791204833984374	-2.362579833984375	0		-1.130192138671875	-0.048509185791015624	0		-0.711302001953125	-2.606589111328125	0		1.935169189453125	-0.4541417541503906	0		3.344100830078125	0.018207616806030273	0		4.57833349609375	0.16405369567871095	0		5.94237646484375	0.5442998046875	0		-0.07383528900146484	5.93718212890625	0		
0.011213359832763671	0.003186495065689087	0		0.4200963134765625	-2.360642822265625	0		-1.1232027587890625	-0.054693073272705076	0		-0.7440052490234375	-2.59895458984375	0		1.9629964599609375	-0.4687114562988281	0		3.359373046875	0.025917167663574218	0		4.5925634765625	0.16980046081542968	0		5.95529541015625	0.5350882568359375	0		-0.23737957763671874	5.91048388671875	0		
-0.008719170570373535	-4.2563098669052125E-4	0		0.42233929443359375	-2.3576982421875	0		-1.0490927734375	-0.05723910522460938	0		-0.7058474731445312	-2.600760986328125	0		1.98471630859375	-0.4901448974609375	0		3.369046875	0.002750749111175537	0		4.603703125	0.16962843322753907	0		5.9506162109375	0.5442619018554687	0		-0.203213134765625	5.915765625	0		
0.01643003463745117	-0.0019492379426956177	0		0.4184566040039063	-2.36262255859375	0		-1.1338382568359375	-0.05254346466064453	0		-0.7435964965820312	-2.599015380859375	0		2.0036722412109373	-0.5015074768066407	0		3.4014794921875	0.015144126892089844	0		4.613873046875	0.16949516296386719	0		5.959779296875	0.5441738891601563	0		-0.0859479751586914	5.92436279296875	0		
-0.008342967987060548	-4.5031899213790895E-4	0		0.4347866516113281	-2.358949462890625	0		-1.05685498046875	-0.06414112854003906	0		-0.7223234252929688	-2.59846826171875	0		1.9823193359375	-0.5290413818359375	0		3.380298583984375	-0.0033617451190948488	0		4.61819189453125	0.1755016632080078	0		5.95480712890625	0.5363951416015625	0		-0.08587326049804687	5.9243515625	0		
0.013795405387878419	-0.004901627063751221	0		0.4159098205566406	-2.366556396484375	0		-1.13059375	-0.061669185638427736	0		-0.7481726684570312	-2.60496142578125	0		1.9940867919921874	-0.552237060546875	0		3.405395751953125	-0.009790815353393555	0		4.63424609375	0.16728604125976562	0		5.951181640625	0.5446150512695312	0		-0.20299308776855468	5.91572314453125	0		
-0.00787682294845581	-4.564310014247894E-4	0		0.4291326904296875	-2.370808349609375	0		-1.1203724365234375	-0.06290333938598633	0		-0.7221284790039062	-2.618507080078125	0		1.982021728515625	-0.5679364624023437	0		3.40545556640625	-0.018696462631225586	0		4.64658251953125	0.17216769409179689	0		5.96040673828125	0.5445946044921876	0		-0.2019739227294922	5.912697265625	0		
-4.8206400871276856E-4	0.006404355049133301	0		0.42372354125976563	-2.35767236328125	0		-1.11605615234375	-0.06001471328735351	0		-0.7285501708984375	-2.606385498046875	0		2.0458955078125	-0.5881644287109375	0		3.422990478515625	-0.0049361190795898435	0		4.66194970703125	0.17800784301757813	0		5.96962255859375	0.5435975341796875	0		-0.2018988494873047	5.9126953125	0		
-0.007360799789428711	-4.432710111141205E-4	0		0.44485833740234376	-2.368071044921875	0		-1.0499677734375	-0.06937590789794922	0		-0.711244384765625	-2.608744140625	0		2.02463525390625	-0.6146557006835938	0		3.4117490234375	-0.029583452224731445	0		4.67493994140625	0.16491465759277343	0		5.96888623046875	0.5448287963867188	0		-0.08459820556640625	5.92332958984375	0		
-0.0070963621139526365	-4.290730059146881E-4	0		0.4172384338378906	-2.366474853515625	0		-1.1318050537109374	-0.0737450942993164	0		-0.7021049194335938	-2.61993603515625	0		2.0343760986328125	-0.6417607421875	0		3.42289111328125	-0.03566037750244141	0		4.6751982421875	0.16510641479492189	0		5.9611318359375	0.5452310791015625	0		-0.08455840301513672	5.9233408203125	0		
-0.006832043170928955	-4.1028299927711487E-4	0		0.4414973754882813	-2.37192041015625	0		-1.1315377197265626	-0.07377391815185547	0		-0.7407418823242188	-2.620160888671875	0		2.0282257080078123	-0.6635302734375	0		3.429752685546875	-0.05563330078125	0		4.68029345703125	0.15722434997558593	0		5.956212890625	0.5376048583984375	0		-0.08356521606445312	5.92233642578125	0		
-0.006569129943847656	-3.873429894447327E-4	0		0.4267930908203125	-2.375574462890625	0		-1.1312713623046875	-0.07380322265625	0		-0.7275006103515625	-2.627431884765625	0		2.03725634765625	-0.6765910034179687	0		3.4253408203125	-0.03935348510742188	0		4.68468896484375	0.16438323974609376	0		5.94461376953125	0.546144287109375	0		-0.20179472351074218	5.91272900390625	0		
-0.006307199001312256	-3.6059001088142395E-4	0		0.45410800170898435	-2.379066650390625	0		-1.1228670654296875	-0.06699434661865235	0		-0.7368850708007812	-2.616242919921875	0		2.07702294921875	-0.7032587280273438	0		3.43202197265625	-0.06828994750976562	0		4.69492041015625	0.16344386291503907	0		5.96184521484375	0.5461272583007812	0		-0.20084811401367186	5.9117265625	0		
